<svg xmlns="http://www.w3.org/2000/svg" viewBox="0 0 24 24" fill="none" aria-hidden="true">
  <path d="M12 4.2c-4.3 0-7.8 3.4-7.8 7.7 0 1.6.5 3.1 1.4 4.4L4.4 20l3.8-1.1c1.1.6 2.4 1 3.8 1 4.3 0 7.8-3.4 7.8-7.7S16.3 4.2 12 4.2Z" stroke="#D8C2A3" stroke-width="1.7" stroke-linejoin="round"/>
  <path d="M9.5 9.2c.2-.4.5-.5.8-.5h.5c.1 0 .3.1.3.2l.9 2.1c.1.2.1.4-.1.6l-.5.6c-.1.1-.1.3 0 .4.5.9 1.3 1.6 2.2 2.1.1.1.3 0 .4-.1l.6-.5c.2-.2.4-.2.6-.1l2 .9c.2.1.2.2.2.3v.5c0 .3-.2.6-.5.8-.4.2-1 .4-1.7.3-1.5-.2-3-.9-4.2-2.1-1.2-1.2-2-2.7-2.1-4.2-.1-.7.1-1.3.3-1.7Z" fill="#D8C2A3"/>
</svg>
